<svg width="104" height="97" viewBox="0 0 104 97" fill="none" xmlns="http://www.w3.org/2000/svg">
<path d="M51.5107 0C63.6991 0 74.9295 6.17639 80.8486 16.1348L82.0205 18.1055C84.7975 22.7776 86.2549 28.0342 86.2549 33.3789C86.2549 43.393 81.8753 52.9725 74.1328 59.8945L55.6748 76.3955C53.4869 78.3515 50.0395 78.3515 47.8516 76.3955L29.7744 60.2344C21.7889 53.0951 17.2725 43.2152 17.2725 32.8867C17.2725 27.851 18.527 22.884 20.9365 18.3799L21.4932 17.3398C27.1782 6.71293 38.7989 5.32052e-05 51.5107 0ZM51.7627 17.3037C43.032 17.3037 35.9541 24.4053 35.9541 33.165C35.9543 41.9246 43.0321 49.0254 51.7627 49.0254C60.4932 49.0253 67.5711 41.9245 67.5713 33.165C67.5713 24.4054 60.4933 17.3038 51.7627 17.3037Z" fill="#0E8345"/>
<path fill-rule="evenodd" clip-rule="evenodd" d="M78.7685 64.5924C79.2091 64.4849 79.6613 64.5805 80.5653 64.7702L87.1581 66.153C88.5546 66.4459 89.2533 66.5919 89.7978 67.0124C90.3423 67.433 90.6605 68.072 91.2968 69.3493L102.984 92.8112C103.435 93.7161 103.66 94.1689 103.444 94.4206C103.228 94.6716 102.746 94.5169 101.784 94.2087L78.9179 86.8835C78.2559 86.6714 77.9246 86.5655 77.5839 86.5749C77.2433 86.5843 76.9186 86.7086 76.2694 86.9567L54.621 95.2321C53.209 95.7719 52.503 96.0417 51.7646 96.0417C51.0261 96.0417 50.3201 95.7719 48.9081 95.2321L27.2597 86.9567C26.6105 86.7086 26.2858 86.5843 25.9452 86.5749C25.6046 86.5655 25.2733 86.6714 24.6112 86.8835L1.74112 94.2106C0.779807 94.5186 0.29898 94.6719 0.0829213 94.4206C-0.132905 94.1692 0.0911615 93.7171 0.539953 92.8131L12.1786 69.3698C12.8139 68.0903 13.1321 67.4505 13.6767 67.029C14.2215 66.6074 14.921 66.4605 16.3193 66.1667L22.9355 64.776C23.8561 64.5826 24.3166 64.4858 24.7577 64.5934C25.1989 64.7012 25.5607 64.997 26.2831 65.5885C29.6282 68.3277 37.9371 75.1329 44.164 80.2321C47.8013 83.2107 49.6209 84.7001 51.7646 84.6999C53.908 84.6994 55.7266 83.2095 59.3632 80.2301C65.6008 75.1198 73.9292 68.2972 77.2646 65.57C77.9735 64.9903 78.3278 64.7 78.7685 64.5924Z" fill="#A6A6A6"/>
</svg>
