<svg width="100" height="38" viewBox="0 0 100 38" fill="none" xmlns="http://www.w3.org/2000/svg">
<g clip-path="url(#clip0_8661_108783)">
<path d="M74.8199 9.96909C74.8199 7.97366 73.2236 6.40285 71.2147 6.40285C69.2448 6.3706 67.6216 7.94141 67.5907 9.91131C67.5584 11.8812 69.1293 13.5044 71.0992 13.5367C71.1381 13.5367 71.1771 13.5367 71.2161 13.5367C73.2249 13.5367 74.8213 11.9699 74.8213 9.96909M77.764 4.13464V15.8062H74.7648V14.7487C73.6952 15.6302 72.3502 16.1086 70.9648 16.1005C67.4147 16.1005 64.6345 13.3714 64.6345 9.96641C64.6345 6.56141 67.4133 3.83365 70.9648 3.83365C72.3502 3.82558 73.6952 4.30261 74.7648 5.18409V4.13464H77.764ZM87.7385 13.1591H85.481C84.7931 13.1591 84.3523 12.8621 84.3523 12.24V6.78178H87.7385V4.13464H84.3523V0.808922H81.3249V4.1333H79.0446V6.78044H81.3249V12.9952C81.3249 14.5619 82.4536 15.8049 84.4907 15.8049H87.7385V13.1578V13.1591ZM94.5781 16.1032C98.0462 16.1032 100 14.4813 100 12.24C100 10.6463 98.843 9.45714 96.4217 8.94249L93.8632 8.42918C92.377 8.1591 91.9094 7.88901 91.9094 7.34883C91.9094 6.64606 92.6243 6.20935 93.9465 6.20935C95.3776 6.20935 96.423 6.58963 96.7253 7.88498H99.7259C99.5606 5.45149 97.7721 3.83096 94.1387 3.83096C91.0038 3.83096 88.7987 5.10078 88.7987 7.55979C88.7987 9.26229 90.0107 10.3695 92.6256 10.911L95.4878 11.5601C96.6165 11.7764 96.9188 12.0734 96.9188 12.5329C96.9188 13.2626 96.0642 13.7208 94.6896 13.7208C92.9562 13.7208 91.9645 13.3405 91.5802 12.0451H88.5528C88.9922 14.4773 90.8371 16.0992 94.5807 16.0992M52.5302 0H63.8417V2.70223H55.5845V6.56544H63.6213V9.18705H55.5845V13.1053H63.8417V15.8062H52.5302V0ZM47.1513 6.31685V4.19645H46.3478C45.0605 4.19645 44.1199 4.78232 43.5447 5.70814V4.28245H41.2456V15.7941H43.5662V9.24886C43.5662 7.46708 44.6694 6.31685 46.1865 6.31685H47.1513ZM30.469 8.97608C30.8828 7.21715 32.3314 6.04407 34.054 6.04407C35.7767 6.04407 37.2252 7.21715 37.6149 8.97608H30.469ZM34.0997 4.05805C30.8022 4.03117 28.108 6.681 28.0798 9.9785C28.0798 9.99731 28.0798 10.0161 28.0798 10.0349C28.0798 13.4641 30.7901 16.0347 34.3066 16.0347C36.4445 16.0347 38.19 15.1102 39.3617 13.5757L37.6848 12.3582C36.8127 13.5085 35.6638 14.05 34.308 14.05C32.3851 14.0634 30.739 12.6767 30.4246 10.7794H39.9597V10.0349C39.9597 6.60709 37.4792 4.0567 34.101 4.0567M20.8371 14.054C18.6254 14.0755 16.8154 12.3018 16.7939 10.09C16.7939 10.0806 16.7939 10.0726 16.7939 10.0645C16.7939 7.83123 18.6092 6.07498 20.8371 6.07498C23.065 6.07498 24.8293 7.86213 24.8293 10.0672C24.8293 12.2722 23.0422 14.0594 20.8371 14.0594M14.5216 15.7941H16.8194V14.3496C17.9307 15.4528 19.4343 16.0696 20.9997 16.0642C24.4477 16.0642 27.158 13.3795 27.158 10.0645C27.158 6.74953 24.4464 4.04192 20.9997 4.04192C19.441 4.03521 17.9441 4.65063 16.8422 5.75249V0H14.523V15.7941H14.5216ZM6.36388 13.9438C8.59312 13.9438 10.3158 12.2521 10.3158 9.74738V0H12.7291V15.7941H10.3386V14.3228C9.25826 15.4286 7.76539 16.0602 6.08707 16.0602C2.64311 16.0602 0 13.6025 0 9.88041V0H2.4093V9.74335C2.4093 12.2924 4.10911 13.9398 6.36119 13.9398M6.36388 13.9438C8.59312 13.9438 10.3158 12.2521 10.3158 9.74738V0H12.7291V15.7941H10.3386V14.3228C9.25826 15.4286 7.76539 16.0602 6.08707 16.0602C2.64311 16.0602 0 13.6025 0 9.88041V0H2.4093V9.74335C2.4093 12.2924 4.10911 13.9398 6.36119 13.9398" fill="white"/>
<path d="M77.1634 24.7758C77.2722 24.7731 77.3811 24.7932 77.4819 24.8336C77.5826 24.8739 77.674 24.9343 77.7506 25.0123C77.8285 25.0889 77.889 25.1802 77.9293 25.281C77.9696 25.3818 77.9898 25.4906 77.9871 25.5981V33.1109C77.9844 33.764 77.85 34.4103 77.592 35.0109C77.3435 35.5914 76.986 36.1208 76.5426 36.5697C76.0965 37.0198 75.567 37.3786 74.9825 37.6231C74.398 37.8677 73.7705 37.9953 73.1376 37.9967C71.763 38.0168 70.4192 37.5963 69.3026 36.7967C69.1252 36.6691 69.0056 36.4769 68.9694 36.2633C68.9371 36.0483 68.9895 35.8306 69.1158 35.6546C69.2421 35.4785 69.4316 35.3576 69.6439 35.3186C69.7514 35.2998 69.8603 35.3039 69.9664 35.3294C70.0712 35.3549 70.1706 35.402 70.2566 35.4678C71.0965 36.0658 72.107 36.3788 73.1376 36.3614C73.5622 36.3667 73.9841 36.2848 74.3752 36.1168C74.7662 35.9489 75.1169 35.7016 75.4058 35.3899C75.7135 35.0848 75.954 34.7207 76.1166 34.3203C76.2792 33.9198 76.3585 33.4898 76.3504 33.0572V32.9349C75.4595 33.7062 74.316 34.1241 73.1376 34.1079C72.4886 34.1106 71.8463 33.9857 71.247 33.7411C70.6719 33.5127 70.1478 33.1741 69.7044 32.7427C69.2609 32.3221 68.9075 31.8169 68.6616 31.2566C68.4077 30.6868 68.276 30.0687 68.276 29.4439C68.276 28.819 68.4077 28.2023 68.6616 27.6312C68.9062 27.0709 69.2609 26.5643 69.703 26.1423C70.1465 25.711 70.6705 25.371 71.247 25.144C71.8476 24.8994 72.4886 24.7744 73.1376 24.7771C74.316 24.761 75.4595 25.1789 76.3504 25.9502V25.6008C76.3491 25.492 76.3693 25.3845 76.4096 25.2837C76.4499 25.1829 76.5103 25.0916 76.5869 25.0136C76.6635 24.937 76.7536 24.8779 76.853 24.8376C76.9524 24.7973 77.0586 24.7771 77.1661 24.7785M73.1376 32.478C73.5555 32.4861 73.9707 32.4108 74.3604 32.259C74.7501 32.1058 75.1048 31.8774 75.4044 31.5858C75.7028 31.3157 75.9406 30.9851 76.1032 30.617C76.2658 30.2488 76.3504 29.851 76.3504 29.4479C76.3504 29.0448 76.2658 28.6471 76.1032 28.2802C75.9406 27.912 75.7014 27.5828 75.4044 27.3114C75.1048 27.0198 74.7501 26.7914 74.3604 26.6382C73.9707 26.485 73.5555 26.4097 73.1376 26.4192C72.2897 26.403 71.4714 26.7242 70.8613 27.3127C70.563 27.5828 70.3252 27.9134 70.1626 28.2816C70 28.6497 69.9153 29.0475 69.9153 29.4493C69.9153 29.851 70 30.2501 70.1626 30.6183C70.3252 30.9865 70.5644 31.3157 70.8613 31.5871C71.4714 32.1743 72.291 32.4955 73.1376 32.4807M93.6361 29.5903C93.6361 29.3727 93.5515 29.163 93.405 29.0018C93.2572 28.8419 93.0556 28.7425 92.8379 28.7223L88.6039 28.3689C88.5434 28.3649 88.4829 28.342 88.4359 28.3044C88.3875 28.2668 88.3512 28.2144 88.3324 28.1552C88.3324 28.1526 88.3324 28.1512 88.3324 28.1485C88.3163 28.1002 88.3136 28.0477 88.3217 27.998C88.3311 27.947 88.3526 27.8999 88.3848 27.8596C88.4171 27.8193 88.4587 27.7884 88.5058 27.7683C88.5528 27.7481 88.6039 27.74 88.6549 27.7441L89.6184 27.8314C89.7151 27.8395 89.8119 27.8274 89.9032 27.7938C89.9946 27.7602 90.0752 27.7078 90.1438 27.6379C90.211 27.568 90.2634 27.4861 90.2943 27.3947C90.3252 27.3033 90.3373 27.2052 90.3265 27.1098C90.3064 26.9674 90.2419 26.8344 90.1411 26.7309C90.0403 26.6274 89.9086 26.5589 89.7675 26.5347L89.3684 26.4622C88.147 26.2297 86.9645 25.8279 85.8559 25.2649C85.1276 24.9061 84.3214 24.7368 83.5098 24.7717C82.6982 24.8067 81.9094 25.0459 81.2147 25.4651C80.52 25.8857 79.9422 26.4729 79.5351 27.1757C79.1266 27.8771 78.9022 28.6712 78.882 29.4828C78.8619 30.2945 79.0446 31.098 79.4168 31.8196C79.7877 32.5412 80.3359 33.1579 81.0078 33.6135C81.681 34.0676 82.4563 34.3471 83.2639 34.4237C84.0715 34.5003 84.8871 34.3713 85.6315 34.0502C86.8973 33.4871 88.2236 33.0733 89.5848 32.818L90.61 32.6352C90.7767 32.607 90.9245 32.5143 91.0253 32.3786C91.1247 32.2429 91.1677 32.0735 91.1462 31.9056C91.1234 31.739 91.0374 31.5871 90.9057 31.4823C90.774 31.3775 90.606 31.3278 90.438 31.3439L89.4424 31.4326C89.3873 31.438 89.3322 31.4286 89.2811 31.4071C89.2314 31.3856 89.1857 31.352 89.1521 31.309C89.1172 31.266 89.0943 31.2149 89.0849 31.1612C89.0742 31.1074 89.0782 31.051 89.0943 30.9986C89.1145 30.9354 89.1521 30.8803 89.2045 30.84C89.2556 30.7984 89.3187 30.7742 89.3832 30.7688L92.8353 30.4665C93.0543 30.4476 93.2585 30.3469 93.4077 30.1856C93.5568 30.023 93.6375 29.8107 93.6375 29.5903M87.0653 29.6065C87.0653 30.2676 86.8691 30.9139 86.5023 31.4635C86.1354 32.0131 85.6127 32.4417 85.0013 32.6943C84.3899 32.947 83.7181 33.0142 83.0691 32.8852C82.42 32.7562 81.8248 32.4377 81.3572 31.9701C80.8895 31.5025 80.5711 30.9072 80.4421 30.2582C80.3131 29.6092 80.3789 28.9373 80.6329 28.3272C80.8855 27.7158 81.3142 27.1945 81.8637 26.8263C82.4133 26.4595 83.061 26.2619 83.7221 26.2619C84.609 26.2619 85.4582 26.614 86.0857 27.2415C86.7132 27.869 87.0653 28.7183 87.0653 29.6051M85.219 31.102C85.6168 30.7043 85.8398 30.1641 85.8398 29.6011C85.8398 29.1819 85.7162 28.772 85.4824 28.4226C85.2486 28.0733 84.918 27.8018 84.531 27.6406C84.1427 27.4807 83.7167 27.4377 83.3056 27.5197C82.893 27.6016 82.5168 27.8032 82.2198 28.1002C81.9229 28.3971 81.7213 28.7747 81.6393 29.1859C81.5574 29.5971 81.599 30.0244 81.7603 30.4114C81.9202 30.7997 82.193 31.1303 82.541 31.3641C82.8904 31.5965 83.3002 31.7215 83.7194 31.7215C84.2824 31.7215 84.8226 31.4984 85.2204 31.1007M92.6888 31.653C92.67 31.5414 92.6189 31.438 92.5423 31.356C92.4657 31.274 92.365 31.2163 92.2548 31.1907C92.1446 31.1652 92.0304 31.1733 91.9242 31.2136C91.8181 31.2539 91.7267 31.3237 91.6622 31.4151C91.5963 31.5065 91.5601 31.6153 91.556 31.7282C91.5533 31.8411 91.5829 31.9513 91.6434 32.048C91.7025 32.1434 91.7898 32.22 91.8933 32.2657C91.9954 32.3114 92.111 32.3262 92.2212 32.3087C92.3703 32.2832 92.502 32.2012 92.5907 32.0776C92.678 31.954 92.713 31.8021 92.6888 31.653ZM91.892 27.2375C91.8731 27.126 91.8221 27.0225 91.7455 26.9405C91.6689 26.8586 91.5695 26.8008 91.4593 26.7752C91.3491 26.7497 91.2349 26.7578 91.1287 26.7967C91.0226 26.8371 90.9325 26.9069 90.8667 26.9983C90.8008 27.0897 90.7646 27.1985 90.7605 27.3114C90.7565 27.4243 90.7861 27.5358 90.8465 27.6312C90.9057 27.7266 90.993 27.8032 91.0951 27.8489C91.1973 27.8959 91.3128 27.9107 91.423 27.8919C91.4969 27.8798 91.5681 27.8529 91.6313 27.8139C91.6944 27.775 91.7495 27.7226 91.7939 27.6621C91.8369 27.6016 91.8691 27.5318 91.8852 27.4592C91.9027 27.3866 91.9041 27.3114 91.892 27.2375ZM23.1336 30.1628H15.8049C16.1408 31.5347 17.193 32.6097 18.6455 32.6097C19.0634 32.603 19.4746 32.5116 19.8562 32.3423C20.2378 32.1716 20.5805 31.9257 20.864 31.6194L22.635 31.657C21.8557 33.1405 20.3628 34.1079 18.6415 34.1079C16.1193 34.1079 14.14 31.9029 14.14 29.4278C14.14 26.9526 16.0871 24.7812 18.6724 24.7812C21.2577 24.7812 23.1752 26.8411 23.1752 29.331C23.1752 29.6092 23.1591 29.886 23.1268 30.1628H23.1336ZM18.663 26.2942C17.2266 26.2942 15.9016 27.4283 15.8062 28.8809H21.5224C21.4257 27.4283 20.1021 26.2942 18.6643 26.2942M32.1338 34.1039V28.6269C32.1338 27.8448 32.0062 27.0292 31.5762 26.36C30.8882 25.2743 29.7084 24.7798 28.4467 24.7798C27.4241 24.7798 26.4983 25.1157 25.8586 25.9609H25.8277V25.019H24.2798V34.1053H25.9406V29.0421C25.9406 27.56 26.6434 26.2955 28.2693 26.2955C30.0255 26.2955 30.473 27.5573 30.473 29.0582V34.1039H32.1338ZM40.9621 34.1039V32.603H40.9299C40.1948 33.6242 39.0298 34.1039 37.8003 34.1039C35.1492 34.1039 33.2008 32.1071 33.2008 29.4748C33.2008 26.8424 35.1169 24.7812 37.8003 24.7812C38.917 24.7812 40.0981 25.2125 40.8022 26.1061H40.8331V22.1595H42.4939V34.1053H40.9608L40.9621 34.1039ZM37.8971 26.2942C36.1408 26.2942 34.8629 27.732 34.8629 29.456C34.8629 31.18 36.1879 32.5842 37.8809 32.5842C39.574 32.5842 40.9675 31.1652 40.9675 29.456C40.9675 27.7468 39.7057 26.2942 37.9024 26.2942H37.8984H37.8971ZM52.1836 25.0176H50.3951L47.7291 31.8827L45.1263 25.0176H43.3392L46.8664 33.6887L45.5724 36.8182H47.2964L52.1822 25.019L52.1836 25.0176ZM56.9108 34.1053C54.3066 34.1053 52.1365 31.9956 52.1365 29.3794C52.1365 26.7631 54.355 24.7812 56.9108 24.7812C59.4665 24.7812 61.6837 26.7927 61.6837 29.4103C61.6837 32.0279 59.5915 34.1053 56.9108 34.1053ZM56.9108 26.2942C56.5009 26.2942 56.0951 26.3762 55.7162 26.5347C55.3373 26.6933 54.9946 26.9231 54.7044 27.2146C54.4155 27.5049 54.1857 27.8502 54.0298 28.2292C53.874 28.6081 53.7947 29.0152 53.7947 29.4251C53.7947 31.1491 55.1841 32.5909 56.9094 32.5909C58.6348 32.5909 60.0228 31.1329 60.0228 29.4089C60.0228 28.9991 59.9436 28.5946 59.7877 28.2157C59.6318 27.8381 59.402 27.4941 59.1131 27.2052C58.8242 26.9163 58.4802 26.6866 58.1027 26.5307C57.7251 26.3748 57.3193 26.2942 56.9094 26.2955L56.9108 26.2942ZM64.7017 34.1053V22.1595H63.0408V34.1053H64.7017ZM1.63934 32.2388C1.69578 32.478 1.78715 32.7091 1.90943 32.9214C2.01962 33.0988 2.15668 33.2574 2.31658 33.3917C2.86482 33.8674 3.57028 34.1214 4.29589 34.1039C5.05912 34.1012 5.80758 33.9024 6.47003 33.5248V31.9419C5.78474 32.345 5.12631 32.5721 4.5082 32.5721C3.66434 32.5721 3.23703 32.0373 3.23703 31.0228V26.5764H6.02123V25.0176H3.23703V22.1582H1.59769V25.0176H0V26.5764H1.5305V30.6196C1.5305 31.4124 1.56678 31.9566 1.64069 32.2375H1.63934V32.2388ZM11.6877 26.4984C12.2024 26.4984 12.7681 26.7873 13.3701 27.349L14.273 25.8521C13.5421 25.1776 12.6525 24.8712 12.1338 24.8712H12.0223C11.4297 24.8712 10.4354 24.8712 9.62241 26.1813L9.58882 26.2351L9.59688 25.0163H7.87826V34.1026H9.59419V29.2262C9.58076 28.5355 9.79844 27.8623 10.215 27.3114C10.6275 26.7726 11.1247 26.4971 11.6877 26.4971" fill="white"/>
</g>
<defs>
<clipPath id="clip0_8661_108783">
<rect width="100" height="37.9978" fill="white"/>
</clipPath>
</defs>
</svg>
